<svg xmlns="http://www.w3.org/2000/svg" viewBox="0 0 1000 990"><g><path d="M610,758.72c90.76,0,72,114.24,72.87,241.28H610Z" fill="#CC734C"></path><path d="M632.74,831.87,610,870l11.38,130h31.76C653.91,819.73,632.74,831.87,632.74,831.87Z" fill="#B56241"></path><path d="M233.25,500c0-147.32,119.43-266.75,266.75-266.75S766.75,352.68,766.75,500A266.22,266.22,0,0,1,668.1,707.12q-8.21,6.68-16.94,12.69C591,758,515,758,446.39,751.89c-6.66-1-13.3-2.26-19.89-3.71-26.33-5.8-51.82-14.75-75.37-27.8Q342.4,715,334.2,708.76a199.59,199.59,0,0,1-15.8-13.38q-7.14-6.63-13.79-13.78A265.86,265.86,0,0,1,233.25,500Z" fill="#CC734C"></path><path d="M269.61,634.48c.7,1.2,1.39,2.4,2.11,3.58.43.72.88,1.42,1.33,2.14.66,1.07,1.32,2.14,2,3.19.48.76,1,1.5,1.46,2.24.66,1,1.32,2,2,3,.51.76,1,1.52,1.56,2.28.66,1,1.32,1.92,2,2.88.54.77,1.1,1.53,1.65,2.3s1.34,1.85,2,2.77,1.15,1.53,1.73,2.29,1.37,1.8,2.07,2.7,1.19,1.51,1.79,2.26,1.41,1.76,2.12,2.63,1.23,1.49,1.85,2.23,1.44,1.72,2.17,2.57,1.27,1.47,1.91,2.2l2.22,2.5c.65.73,1.31,1.44,2,2.16.86.94,1.73,1.87,2.6,2.79l1.21,1.28c1.29,1.34,2.59,2.68,3.91,4l.26.27c1.29,1.28,2.6,2.55,3.91,3.81l1.58,1.5c.95.89,1.9,1.78,2.86,2.66l1.16,1.06c1,.94,2.09,1.86,3.14,2.78q4.9,4.27,10,8.19,8.19,6.24,16.93,11.62c23.55,13,49,22,75.37,27.8,6.59,1.45,13.23,2.7,19.89,3.71,42.1,3.75,87,5.18,129.28-3.08C508.45,729,185.59,612.74,388.8,257.48h0c-2.72,1.25-5.4,2.54-8.06,3.88l-.59.29c-1.22.61-2.44,1.24-3.65,1.88l-1,.53c-3.76,2-7.48,4.07-11.13,6.23l-.9.53c-1.16.69-2.31,1.39-3.46,2.1l-.87.54q-5.36,3.35-10.55,6.93l-1.08.75c-1.09.76-2.16,1.52-3.23,2.29l-.66.47q-3.27,2.39-6.46,4.84l-.62.48c-1,.78-2,1.58-3,2.39l-1.17.94c-1,.81-2,1.62-3,2.45l0,0c-2.11,1.75-4.19,3.55-6.24,5.37l-1.14,1-2.69,2.45L318,305q-4.28,4-8.37,8.17l-1.38,1.41c-.79.82-1.58,1.64-2.36,2.47-.46.49-.92,1-1.37,1.48q-2.06,2.2-4.06,4.46c-.45.51-.91,1-1.36,1.54-.71.81-1.41,1.63-2.11,2.45l-1.51,1.79c-.68.81-1.36,1.62-2,2.44-.54.66-1.08,1.33-1.61,2-1.07,1.33-2.12,2.66-3.16,4-.54.7-1.08,1.4-1.61,2.11s-1.2,1.59-1.79,2.4-1.07,1.45-1.59,2.18-1.13,1.55-1.68,2.33q-1.42,2-2.8,4.05c-.5.73-1,1.48-1.49,2.22s-1.1,1.66-1.64,2.5l-1.49,2.31-1.68,2.71c-.43.69-.86,1.38-1.28,2.07-.89,1.46-1.75,2.93-2.61,4.4l-1.22,2.16c-.54.95-1.08,1.91-1.61,2.87-.4.73-.8,1.46-1.19,2.19-.64,1.19-1.27,2.39-1.9,3.59l-1.2,2.34c-.64,1.28-1.28,2.55-1.91,3.84-.33.69-.67,1.39-1,2.09-.52,1.09-1,2.19-1.53,3.29-.31.66-.61,1.32-.91,2q-1.11,2.47-2.17,5c-.22.52-.43,1.05-.65,1.57-.53,1.27-1.05,2.54-1.56,3.82-.27.67-.53,1.34-.79,2-.5,1.26-1,2.53-1.45,3.8-.21.55-.42,1.1-.62,1.65q-.94,2.63-1.85,5.26l-.56,1.7q-.66,2-1.29,4l-.6,1.91c-.47,1.54-.93,3.08-1.37,4.63-.1.33-.2.66-.29,1q-.78,2.76-1.5,5.54c-.16.59-.3,1.19-.45,1.78-.35,1.39-.69,2.78-1,4.18l-.42,1.75c-.43,1.9-.85,3.8-1.24,5.71l-.15.77q-.51,2.55-1,5.1c-.11.61-.21,1.21-.32,1.82-.26,1.49-.51,3-.74,4.5-.08.51-.17,1-.24,1.52-.3,1.95-.57,3.91-.83,5.88l-.15,1.3c-.2,1.59-.38,3.19-.55,4.79-.06.6-.13,1.2-.19,1.81-.16,1.68-.31,3.37-.45,5.06,0,.35-.06.69-.08,1q-.22,3-.39,6.05c0,.53,0,1.07-.07,1.6q-.1,2.36-.18,4.71c0,.59,0,1.18,0,1.77,0,2.05-.08,4.11-.08,6.17,0,0,0,.07,0,.1,0,2.22,0,4.42.08,6.62,0,.76.06,1.52.08,2.28.05,1.47.1,2.94.17,4.41,0,.89.11,1.77.16,2.66.08,1.33.15,2.66.25,4,.07,1,.16,1.89.24,2.83.11,1.26.21,2.52.34,3.77.09,1,.21,1.94.31,2.91.14,1.21.27,2.43.42,3.64.12,1,.26,2,.39,2.95.16,1.18.32,2.37.5,3.55.15,1,.31,2,.47,3,.18,1.16.37,2.33.57,3.49.18,1,.36,2,.55,3,.21,1.15.43,2.3.65,3.44s.41,2,.62,3c.24,1.14.48,2.27.74,3.4s.44,2,.68,2.93c.26,1.13.54,2.25.82,3.36s.49,1.95.74,2.91c.3,1.12.6,2.23.91,3.34.26,1,.53,1.92.81,2.87.32,1.11.65,2.21,1,3.31s.58,1.89.88,2.84.7,2.19,1.06,3.28.62,1.87.94,2.8c.38,1.09.76,2.18,1.15,3.27.33.91.65,1.83,1,2.74l1.24,3.27c.35.89.69,1.79,1,2.68.44,1.09.89,2.19,1.34,3.28.36.86.71,1.73,1.08,2.59.47,1.12,1,2.22,1.45,3.33.37.82.73,1.65,1.1,2.47.52,1.16,1.07,2.3,1.6,3.44l1.08,2.3c.61,1.26,1.24,2.5,1.87,3.75.32.63.62,1.27.95,1.9q2.88,5.61,6,11.07C268.88,633.26,269.25,633.87,269.61,634.48Z" fill="#B56241"></path><path d="M233.25,500c0-147.32,119.43-266.75,266.75-266.75S766.75,352.68,766.75,500A266.22,266.22,0,0,1,668.1,707.12q-8.21,6.68-16.94,12.69C591,758,515,758,446.39,751.89c-6.66-1-13.3-2.26-19.89-3.71-26.33-5.8-51.82-14.75-75.37-27.8Q342.4,715,334.2,708.76a199.59,199.59,0,0,1-15.8-13.38q-7.14-6.63-13.79-13.78A265.86,265.86,0,0,1,233.25,500Z" fill="none" stroke="#592d3d" stroke-miterlimit="10" stroke-width="12px"></path><path d="M386.12,758.72c-90.77,0-72,114.24-72.87,241.28h72.87Z" fill="#CC734C"></path><path d="M367.23,831.87,390,870l-11.39,130H346.88C346.07,819.73,367.23,831.87,367.23,831.87Z" fill="#B56241"></path><path d="M619.47,1070H380.53a13.28,13.28,0,0,1-13.27-13.28V772a13.28,13.28,0,0,1,13.27-13.28H613.76c13.09,0,19,7.66,19,19.88v278.08A13.28,13.28,0,0,1,619.47,1070Z" fill="#CC734C"></path><path d="M629.05,766.62a19.33,19.33,0,0,1-2.51-4,17.25,17.25,0,0,0-8.28-3.51,28.88,28.88,0,0,0-4.5-.34H380.53A13.28,13.28,0,0,0,367.26,772c29,10.42,83.29,16.24,132.74,16.24C563.06,788.24,604.38,778.89,629.05,766.62Z" fill="#B56241"></path><path d="M610,758.72c90.76,0,72,114.24,72.87,241.28H632.74" fill="none" stroke="#592d3d" stroke-linecap="square" stroke-miterlimit="10" stroke-width="12px"></path><path d="M386.12,758.72c-90.77,0-72,114.24-72.87,241.28h50.07" fill="none" stroke="#592d3d" stroke-linecap="square" stroke-miterlimit="10" stroke-width="12px"></path><path d="M380.53,758.82l233.23-.1" fill="none" stroke="#592d3d" stroke-miterlimit="10" stroke-width="12px"></path><path d="M380.53,1070H497.15C388,1070,396.24,838.82,367.26,838.82v217.86A13.28,13.28,0,0,0,380.53,1070Z" fill="#B56241"></path><path d="M361.26,860.85c-.19-3.67-.11-7.34.05-11s.47-7.35.86-11c.2-1.84.4-3.67.65-5.51s.49-3.67.85-5.51a44.18,44.18,0,0,1,3.59-11,44.18,44.18,0,0,1,3.59,11c.36,1.84.62,3.67.85,5.51s.45,3.67.65,5.51c.38,3.67.68,7.34.85,11s.25,7.34.06,11Z" fill="#592d3d"></path><path d="M632.74,870v8c.26,34,.26,69,0,102.75,0,2.87,0,5.72,0,8.53v67.41A13.28,13.28,0,0,1,619.47,1070H380.53a13.28,13.28,0,0,1-13.27-13.28V998.52c0-2.51,0-5.07,0-7.65-.25-34.87-.25-69.87,0-105.3V860.85" fill="none" stroke="#592d3d" stroke-miterlimit="10" stroke-width="12px"></path><path d="M626.74,870c-.19-4.17-.1-8.35.06-12.53s.47-8.35.85-12.53c.2-2.09.41-4.18.65-6.27s.49-4.17.85-6.26a55.09,55.09,0,0,1,3.59-12.53,55.09,55.09,0,0,1,3.59,12.53c.36,2.09.62,4.18.85,6.26s.45,4.18.65,6.27c.38,4.18.69,8.35.85,12.53s.25,8.36.06,12.53Z" fill="#592d3d"></path><path d="M570.68,842.45C570.9,833,582.9,829,588.9,835a10.61,10.61,0,1,1-15.16,14.85A10.4,10.4,0,0,1,570.68,842.45Z" fill="#592d3d"></path><path d="M408.11,842.15C407.9,834,416.9,830,422.9,833c8,3,8,14,0,19-4,2-8,0-11.75-2.48A10.39,10.39,0,0,1,408.11,842.15Z" fill="#592d3d"></path><path d="M500,831.77a27.13,27.13,0,0,1,1.5,5.84,42.47,42.47,0,0,1,.49,5.84l.3,11.69c.09,3.89.21,7.79.25,11.69l.17,11.67c.23,15.57.22,31.16.28,46.74s.18,31.16,0,46.74c-.09,7.79-.3,15.58-.53,23.37-.1,3.89-.29,7.79-.67,11.68a92.5,92.5,0,0,1-1.77,11.69,92.5,92.5,0,0,1-1.77-11.69c-.38-3.89-.57-7.79-.67-11.68-.23-7.79-.44-15.58-.53-23.37-.2-15.58,0-31.16,0-46.74s0-31.15.18-46.73l.17-11.7.33-11.68.33-11.68a44.11,44.11,0,0,1,.5-5.84A27.13,27.13,0,0,1,500,831.77Z" fill="#B56241"></path><path d="M425.22,883a18.51,18.51,0,0,1,4.67-1.5,29.75,29.75,0,0,1,4.68-.5l9.35-.33,18.7-.41c12.46-.19,24.91-.24,37.38-.27s24.93-.16,37.39,0c6.23.09,12.46.3,18.7.53,3.11.11,6.23.3,9.34.67a61.34,61.34,0,0,1,9.35,1.78,59.17,59.17,0,0,1-9.35,1.77c-3.11.38-6.23.57-9.34.67-6.24.23-12.47.43-18.7.52-12.46.19-24.92,0-37.39,0s-24.93,0-37.4-.15c-6.23-.06-12.46-.26-18.68-.5l-9.35-.34a29.5,29.5,0,0,1-4.67-.5A18.45,18.45,0,0,1,425.22,883Z" fill="#B56241"></path><path d="M442.41,914.38a12.51,12.51,0,0,1,3.74-1.11,18.35,18.35,0,0,1,3.62-.15c2.39.1,4.78.16,7.17.21,4.78.11,9.56.15,14.34.17,9.63,0,19.09.08,28.76-.21s19.26-.43,28.88-.39c4.81,0,9.62.13,14.42.24a70.37,70.37,0,0,1,7.23.47,38.17,38.17,0,0,1,7.27,1.53,36.56,36.56,0,0,1-7.16,2,61.08,61.08,0,0,1-7.21.86c-4.82.35-9.64.65-14.45.82-9.64.36-19.27.32-28.88.45-4.81,0-9.61.22-14.48.1s-9.69-.13-14.52-.31-9.68-.58-14.5-1.08c-2.42-.27-4.82-.57-7.23-.9a16.82,16.82,0,0,1-3.57-.84A11.51,11.51,0,0,1,442.41,914.38Z" fill="#B56241"></path><path d="M438.93,949.87a13.07,13.07,0,0,1,3.82-1.5,19.13,19.13,0,0,1,3.82-.49l7.63-.32c5.09-.18,10.19-.33,15.28-.41C479.66,947,489.84,947,500,947s20.36-.17,30.54,0c5.09.09,10.18.3,15.27.53a72.73,72.73,0,0,1,7.63.66A41.2,41.2,0,0,1,561.1,950a41.25,41.25,0,0,1-7.63,1.77,70.34,70.34,0,0,1-7.64.67c-5.09.23-10.18.44-15.27.53-10.18.2-20.37.06-30.55,0s-20.36-.06-30.54-.25c-5.09-.1-10.19-.28-15.28-.49l-7.63-.37a19.33,19.33,0,0,1-3.82-.5A12.85,12.85,0,0,1,438.93,949.87Z" fill="#B56241"></path><path d="M568.44,849.8c-21.18,6.89-42,17.48-62.85,19.67-26.75,2.82-54.1-13.37-82.3-21.08-2.15-2.58-18.35-14.44-33.47-13.94-11.88.4-15.09,4.3-18.4,8.19l-4.16,213.48a13.27,13.27,0,0,0,13.27,13.27H619.47a13.27,13.27,0,0,0,13.27-13.27l-2.38-215.36c-4.43,0-7.1-9.4-20.41-5.09C593.66,841,569.71,848.28,568.44,849.8Z" fill="#D67070"></path><polygon points="632.74 831.31 609.95 869.4 621.34 999.43 632.94 999.43 632.94 893.78 632.74 831.31" fill="#C46565"></polygon><path d="M380.53,1069.39H497.15c-109.2,0-100.91-231.14-129.89-231.14v217.87A13.27,13.27,0,0,0,380.53,1069.39Z" fill="#C46565"></path><path d="M361.26,860.4a63.71,63.71,0,0,1-.1-8.29q.19-4.15.71-8.31c.18-1.39.35-2.77.57-4.16s.44-2.77.78-4.16a27.84,27.84,0,0,1,3.44-8.35,27.54,27.54,0,0,1,3.73,8.22c.39,1.38.68,2.76.93,4.13s.5,2.76.72,4.14c.44,2.75.79,5.51,1,8.27a62,62,0,0,1,.21,8.29Z" fill="#592d3d"></path><path d="M632.74,869.4v8c.26,34,.26,69,0,102.76,0,2.87,0,5.72,0,8.53v67.41a13.27,13.27,0,0,1-13.27,13.27H380.53a13.27,13.27,0,0,1-13.27-13.27V998q0-3.76,0-7.65c-.25-34.86-.25-69.86,0-105.3V860.29" fill="none" stroke="#592d3d" stroke-miterlimit="10" stroke-width="12px"></path><path d="M626.76,869.38a65.79,65.79,0,0,1,.65-8.53q.57-4.25,1.46-8.47c.3-1.41.6-2.82.94-4.22s.69-2.81,1.15-4.21a29.21,29.21,0,0,1,4.18-8.28,28.9,28.9,0,0,1,3,8.78c.26,1.45.42,2.89.55,4.33s.25,2.88.35,4.31c.18,2.87.28,5.74.25,8.59a67.65,67.65,0,0,1-.54,8.54Z" fill="#592d3d"></path><path d="M557.91,889.36c4.41-.78,8.76-1.39,13.1-2l13-1.93c4.31-.65,8.61-1.36,12.91-2.1s8.61-1.58,13.07-2.2a62.58,62.58,0,0,1-12.33,5.26,87,87,0,0,1-13,3,94.61,94.61,0,0,1-13.33,1.11A65.72,65.72,0,0,1,557.91,889.36Z" fill="#592d3d"></path><path d="M329.09,794.17c56.12,35.58,168.48,75.53,168.48,75.53l-.16,14S397,879.36,316.32,844.9C316.32,814.38,329.09,794.17,329.09,794.17Z" fill="#D67070" stroke="#592d3d" stroke-miterlimit="10" stroke-width="12px"></path><path d="M648.66,870.5s17.7-1.85,30.9-9c-.11-4.25-.6-8.11-.6-8.11l-30.85,10.68Z" fill="#B56241"></path><path d="M671.55,794.43C619,831.8,503,869.7,503,869.7l.17,14s100.41-4.3,181.08-38.76C684.29,822.67,671.55,794.43,671.55,794.43Z" fill="#D67070" stroke="#592d3d" stroke-miterlimit="10" stroke-width="12px"></path><path d="M320.63,822.65c.28.24.83.61,1.27.92s1,.64,1.45.95c1,.6,2,1.21,3.08,1.77,2.08,1.16,4.23,2.25,6.43,3.28s4.42,2,6.65,3c1.12.5,2.23,1,3.34,1.58s2.22,1.1,3.31,1.76a40.85,40.85,0,0,1-7.42-1.08q-3.63-.9-7.17-2.15a65,65,0,0,1-7-2.89c-1.13-.56-2.26-1.16-3.36-1.84-.55-.34-1.09-.69-1.64-1.06a15.93,15.93,0,0,1-1.67-1.31Z" fill="#592d3d"></path><path d="M670.06,788.32q3.3-3.32,6.5-6.71c45.16-54.71,48.7-112.39,57.87-148.37V619l-2.44.84c.83-1.52,1.65-3,2.44-4.56-.06-.1-3.49,3.38-3.55,3.28A33.65,33.65,0,0,1,725.8,622l-32.55,11.28a220.36,220.36,0,0,1-43.89,3.82c-63-.26-63.24-14.87-113.2-20l-96.49,1.58c-25.69,3.84-37.06,11.81-88,12.85-44.15.9-83.62-10-83.62-10v12.68c14,36.84,4.58,64.43,29,110.49,0-.65,0-1.31-.05-2-4.39-21.71,0-41.57,2.12-49.19.21-1.88.36-2.92.36-2.92v-.07c0-.12,0-.2,0-.2l0,.1c0,.14.11.45.22.9.23-.72.36-1.11.36-1.11s.89,4.91,2.54,12.74c3.93,15.48,11.16,43,19.45,70.08.92,2.43,1.87,4.81,2.84,7.11.07.21.15.44.23.65,27.94,29.88,62.13,55.36,93.14,74.5,3.34,2,6.51,3.87,9.48,5.61a86.4,86.4,0,0,1,2.41-43.06s.07.38.21,1.08c.24-.77.4-1.19.4-1.19s11.43,47.45,34.52,62.83c.57.24,1.15.47,1.73.66l-.44.16.1.06c.58.33,1.18.65,1.77,1a208.45,208.45,0,0,0,21.34,8.53c5.41,1.57,9.84,2.39,12,2.39,4.75,0,32-10.61,48.69-49.07,1.1-3.27,1.63-5.32,1.63-5.32l.28.69c.11-.27.22-.53.32-.8A56,56,0,0,1,560.7,869a526,526,0,0,0,72.06-47.55l0-.11c.27-.64.53-1.29.8-1.94l.06-.13.81-2v0l.84-2.08v0c14.48-35.83,23.58-89,23.58-89,.06-.18.28.09.6.74,0-.55,0-.85,0-.85S675.72,748.49,670.06,788.32Z" fill="#FEDC58"></path><path d="M670.06,788.32q3.3-3.32,6.5-6.71c45.16-54.71,48.7-112.39,57.87-148.37V619l-2.44.84c.83-1.52,1.65-3,2.44-4.56-.06-.1-3.49,3.38-3.55,3.28A33.65,33.65,0,0,1,725.8,622l-32.55,11.28a220.36,220.36,0,0,1-43.89,3.82c-63-.26-63.24-14.87-113.2-20l-96.49,1.58c-25.69,3.84-37.06,11.81-88,12.85-44.15.9-83.62-10-83.62-10v12.68c14,36.84,4.58,64.43,29,110.49,0-.65,0-1.31-.05-2-4.39-21.71,0-41.57,2.12-49.19.21-1.88.36-2.92.36-2.92v-.07c0-.12,0-.2,0-.2l0,.1c0,.14.11.45.22.9.23-.72.36-1.11.36-1.11s.89,4.91,2.54,12.74c3.93,15.48,11.16,43,19.45,70.08.92,2.43,1.87,4.81,2.84,7.11.07.21.15.44.23.65,27.94,29.88,62.13,55.36,93.14,74.5,3.34,2,6.51,3.87,9.48,5.61a86.4,86.4,0,0,1,2.41-43.06s.07.38.21,1.08c.24-.77.4-1.19.4-1.19s11.43,47.45,34.52,62.83c.57.24,1.15.47,1.73.66l-.44.16.1.06c.58.33,1.18.65,1.77,1a208.45,208.45,0,0,0,21.34,8.53c5.41,1.57,9.84,2.39,12,2.39,4.75,0,32-10.61,48.69-49.07,1.1-3.27,1.63-5.32,1.63-5.32l.28.69c.11-.27.22-.53.32-.8A56,56,0,0,1,560.7,869a526,526,0,0,0,72.06-47.55l0-.11c.27-.64.53-1.29.8-1.94l.06-.13.81-2v0l.84-2.08v0c14.48-35.83,23.58-89,23.58-89,.06-.18.28.09.6.74,0-.55,0-.85,0-.85S675.72,748.49,670.06,788.32Z" fill="#FEDC58"></path><path d="M670.06,788.32q3.3-3.32,6.5-6.71c45.16-54.71,48.7-112.39,57.87-148.37V619l-2.44.84c.83-1.52,1.65-3,2.44-4.56-.06-.1-3.49,3.38-3.55,3.28A33.65,33.65,0,0,1,725.8,622l-32.55,11.28a220.36,220.36,0,0,1-43.89,3.82c-63-.26-78.3-19.69-113.2-20s-76.95-1.23-96.49,1.58-37.06,11.81-88,12.85c-44.15.9-83.62-10-83.62-10v12.68c14,36.84,4.58,64.43,29,110.49,0-.65,0-1.31-.05-2-4.39-21.71,0-41.57,2.12-49.19.21-1.88.36-2.92.36-2.92v-.07c0-.12,0-.2,0-.2l0,.1c0,.14.11.45.22.9.23-.72.36-1.11.36-1.11s.89,4.91,2.54,12.74c3.93,15.48,11.16,43,19.45,70.08.92,2.43,1.87,4.81,2.84,7.11.07.21.15.44.23.65,27.94,29.88,62.13,55.36,93.14,74.5,3.34,2,6.51,3.87,9.48,5.61a86.4,86.4,0,0,1,2.41-43.06s.07.38.21,1.08c.24-.77.4-1.19.4-1.19s11.43,47.45,34.52,62.83c.57.24,1.15.47,1.73.66l-.44.16.1.06c.58.33,1.18.65,1.77,1a208.45,208.45,0,0,0,21.34,8.53c5.41,1.57,9.84,2.39,12,2.39,4.75,0,32-10.61,48.69-49.07,1.1-3.27,1.63-5.32,1.63-5.32l.28.69c.11-.27.22-.53.32-.8A56,56,0,0,1,560.7,869a526,526,0,0,0,72.06-47.55l0-.11c.27-.64.53-1.29.8-1.94l.06-.13.81-2v0l.84-2.08v0c14.48-35.83,23.58-89,23.58-89,.06-.18.28.09.6.74,0-.55,0-.85,0-.85S675.72,748.49,670.06,788.32Z" fill="#FEDC58"></path><path d="M343.5,706.91a23.12,23.12,0,0,0,13.79,5.8C343,701.34,337.78,690.32,336,685.36A271.66,271.66,0,0,1,326,630.81a329.37,329.37,0,0,1-57.87-9.33v12.68c14,36.84,4.58,64.43,29,110.49,0-.65,0-1.31-.05-2-4.39-21.71,0-41.57,2.12-49.19.21-1.88.36-2.92.36-2.92v-.07c0-.12,0-.2,0-.2l0,.1c0,.14.11.45.22.9.23-.72.36-1.11.36-1.11s.89,4.91,2.54,12.74c3.93,15.48,11.16,43,19.45,70.08.92,2.43,1.87,4.81,2.84,7.11.07.21.15.44.23.65,27.94,29.88,62.13,55.36,93.14,74.5,3.34,2,6.51,3.87,9.48,5.61a86.4,86.4,0,0,1,2.41-43.06s.07.38.21,1.08c.24-.77.4-1.19.4-1.19s11.43,47.45,34.52,62.83c.57.24,1.15.47,1.73.66l-.44.16.1.06c.58.33,1.18.65,1.77,1a208.45,208.45,0,0,0,21.34,8.53c5.41,1.57,9.84,2.39,12,2.39,3.53,0,19.51-5.88,34.33-24.72C466.94,846.06,380.78,800,343.5,706.91Z" fill="#EDBF2E"></path><path d="M433.87,816.78s9.49,9,29.29,4.09c-1.47,3.55-5.93,5.4-5.93,5.4s6.17,8.13,19.06,7.75c0,0-7.73,4.8-15.53,1.65A169.67,169.67,0,0,0,442.41,834l-13.51-9.38Z" fill="#EDBF2E"></path><path d="M351.7,631.52q-2.64.48-5.28.84c-.89.11-1.77.25-2.65.35l-2.66.24-5.32.38c-1.78.08-3.56.09-5.33.14-3.56.07-7.11-.07-10.67-.2s-7.1-.37-10.64-.71-7.07-.7-10.61-1.1-7.05-1-10.56-1.56a196.89,196.89,0,0,1-21-4.57l-3.85-1.08,2.1-7.57,3.88.94c6.61,1.61,13.47,3.13,20.27,4.49s13.68,2.64,20.57,3.72c3.44.59,6.89,1,10.35,1.56s6.92,1,10.39,1.31C337.67,629.65,344.64,630.36,351.7,631.52Z" fill="#592d3d"></path><path d="M669.31,789.07c10.26-10.26,9.29-9.63,17.79-20.94-1.5-34.48-30-53.71-30-53.71L659,726.08c.84.16,7.91,18.47,7.56,46.08Z" fill="#EDBF2E"></path><path d="M575.36,859.87c-5.72-24.9-22.42-29.15-22.42-29.15l3.21,19.45a96.48,96.48,0,0,1,3.9,19.14c5-2.72,10.16-5.66,15.45-8.78Z" fill="#EDBF2E"></path><path d="M340.09,735.62a90.52,90.52,0,0,0,6.59,20.14A121.79,121.79,0,0,0,357,773.89l3.09,4.18c.53.68,1,1.42,1.56,2.07l1.66,2c1.13,1.31,2.19,2.68,3.35,4l3.56,3.78c.6.62,1.16,1.28,1.77,1.89l1.9,1.78,3.77,3.58c2.58,2.32,5.33,4.45,7.94,6.75l-6.28,3.32-.06-4c.05-1.32.07-2.64.2-4s.23-2.65.46-4c.11-.66.18-1.32.32-2l.43-2a43.84,43.84,0,0,1,2.52-7.67A35,35,0,0,1,385,780c.34-.6.73-1.18,1.13-1.77.21-.29.4-.57.64-.87s.42-.54.78-.95l4.46-5.06.56,6.55c.1,1.09.3,2.4.53,3.61s.51,2.46.84,3.68a48,48,0,0,0,2.51,7.14,36.29,36.29,0,0,0,3.9,6.55,29,29,0,0,0,5.62,5.42,23.79,23.79,0,0,1-7-4.07,31.32,31.32,0,0,1-5.54-6.17,43.85,43.85,0,0,1-4-7.32c-.54-1.28-1-2.58-1.46-3.91a34,34,0,0,1-1.11-4.16l5,1.49c0,.08-.22.35-.34.55s-.26.46-.39.69c-.25.48-.5,1-.73,1.48a33.23,33.23,0,0,0-1.24,3.15,44.39,44.39,0,0,0-1.62,6.69,55.25,55.25,0,0,0-.65,6.94c-.06,1.16,0,2.34,0,3.51l.16,3.53.4,8.64-6.68-5.32c-1.44-1.15-2.87-2.29-4.29-3.46l-2.14-1.75c-.7-.59-1.44-1.14-2.09-1.79l-4-3.83-2-1.91c-.64-.67-1.25-1.36-1.86-2.05l-3.67-4.15c-1.21-1.39-2.26-2.92-3.38-4.39a105.25,105.25,0,0,1-6.17-9.19,91.82,91.82,0,0,1-8.63-20.3C340.61,750.19,339.43,742.84,340.09,735.62Z" fill="#592d3d"></path><path d="M638.78,724.34A5.35,5.35,0,0,1,640,726a16.7,16.7,0,0,1,.84,1.94A33.87,33.87,0,0,1,642,732a58.47,58.47,0,0,1,1.08,8.32,94.26,94.26,0,0,1-.54,16.71,109.35,109.35,0,0,1-9,32.28A90.58,90.58,0,0,1,614.3,817a70.11,70.11,0,0,1-28.51,17,111.55,111.55,0,0,0,23.91-21.31A118.63,118.63,0,0,0,626.25,786a157.47,157.47,0,0,0,10.09-30,151.49,151.49,0,0,0,2.81-15.76c.32-2.65.54-5.32.63-8a33.51,33.51,0,0,0-.08-4,14.64,14.64,0,0,0-.26-2A5.74,5.74,0,0,0,638.78,724.34Z" fill="#ffffff"></path><path d="M262.51,621.57c22.24,43.9,7.22,72.38,35.18,124.3-7-29,2.43-55.68,2.43-55.68S310,744.78,325,780.12c7.28,23.46,69.85,61.4,103.55,81.17a86.33,86.33,0,0,1,2.32-43.58s11.89,49.36,35.91,63.71c13.43,7.58,30.15,11.89,35.13,11.89s34.53-11.58,50.92-54.5a56,56,0,0,1,7.9,30.68c22.18-12,53.39-25.68,72.45-47.65C659.52,787.15,659.52,726,659.52,726S676,748.85,669.93,789.3c61.76-68.3,54.34-143.14,71.42-175.57" fill="none" stroke="#592d3d" stroke-miterlimit="10" stroke-width="12px"></path><path d="M734.38,616.77a3.8,3.8,0,0,0,1.16,1.29,4,4,0,0,0,2.15.7,3.81,3.81,0,0,0,1.68-.34h0l-.09,0-.2.11-.48.24-1,.51-2,1q-2,1-4,2c-2.69,1.32-5.41,2.57-8.13,3.81s-5.5,2.41-8.27,3.57-5.6,2.23-8.47,3.26c-1.44.51-2.89,1-4.39,1.43a39.36,39.36,0,0,1-4.75,1.15c-.47.08-.81.11-1.18.16l-1.12.13c-.74.09-1.48.16-2.23.23-1.49.14-3,.3-4.49.4a85.55,85.55,0,0,1-18.09-.43c5.86-1.58,11.62-2.89,17.37-4.29l8.59-2a35.39,35.39,0,0,0,3.81-1.36c1.31-.52,2.63-1.14,4-1.72,2.65-1.19,5.29-2.47,7.93-3.77s5.29-2.61,7.93-3.93l7.94-4,4-2,2-1,1-.48.53-.25.3-.13.16-.08.05,0a4.11,4.11,0,0,1,5.19,1.57l2.13,3.38-7.06,4.19Z" fill="#592d3d"></path><path d="M271.4,568.53c-1-28.36,18-52.36,43.28-63.56a62.37,62.37,0,0,1,8.16-2.7A70,70,0,0,1,365.05,505a71.67,71.67,0,0,1,8.93,4.16c29.53,15.89,42.79,53.25,31.36,83.46a61.68,61.68,0,0,1-4.18,8.82,54.68,54.68,0,0,1-17.51,20.83,69.25,69.25,0,0,1-7.85,5c-27.38,13-64.38,9-86.45-11.4a68.39,68.39,0,0,1-6.11-7.47,64.89,64.89,0,0,1-5.57-9.5A55.78,55.78,0,0,1,272,577.1,75.67,75.67,0,0,1,271.4,568.53Z" fill="#B56241"></path><path d="M269.77,550.18c-1-28.36,18-52.36,43.28-63.56a62.23,62.23,0,0,1,8.15-2.7,70,70,0,0,1,42.22,2.68,71.54,71.54,0,0,1,8.92,4.16c29.53,15.89,42.79,53.26,31.36,83.46a59.6,59.6,0,0,1-4.18,8.82,63.85,63.85,0,0,1-4.71,7.8,64.78,64.78,0,0,1-5.68,7,63.08,63.08,0,0,1-7.12,6.07,68.37,68.37,0,0,1-7.85,5c-27.38,13-64.38,9-86.44-11.39a68.28,68.28,0,0,1-6.11-7.48,65,65,0,0,1-5.58-9.5,55.59,55.59,0,0,1-5.71-21.73A71.3,71.3,0,0,1,269.77,550.18Z" fill="#ffffff"></path><circle cx="338.51" cy="541.79" r="12.24" fill="#592d3d"></circle><path d="M399.52,583a59.6,59.6,0,0,0,4.18-8.82,62.5,62.5,0,0,0,2.57-8.64c-68.32-7.75-127,20.81-127,20.81l1.1,1.75c.41.62.82,1.24,1.25,1.84a68.28,68.28,0,0,0,6.11,7.48c22.06,20.36,59.06,24.36,86.44,11.39a68.37,68.37,0,0,0,7.85-5,63.08,63.08,0,0,0,7.12-6.07,64.78,64.78,0,0,0,5.68-7A63.85,63.85,0,0,0,399.52,583Z" fill="#CC734C" stroke="#592d3d" stroke-miterlimit="10" stroke-width="6px"></path><path d="M269.77,550.18c-1-28.36,18-52.36,43.28-63.56a62.23,62.23,0,0,1,8.15-2.7,70,70,0,0,1,42.22,2.68,71.54,71.54,0,0,1,8.92,4.16c29.53,15.89,42.79,53.26,31.36,83.46a59.6,59.6,0,0,1-4.18,8.82,63.85,63.85,0,0,1-4.71,7.8,64.78,64.78,0,0,1-5.68,7,63.08,63.08,0,0,1-7.12,6.07,68.37,68.37,0,0,1-7.85,5c-27.38,13-64.38,9-86.44-11.39a68.28,68.28,0,0,1-6.11-7.48,65,65,0,0,1-5.58-9.5,55.59,55.59,0,0,1-5.71-21.73A71.3,71.3,0,0,1,269.77,550.18Z" stroke="#592d3d" stroke-miterlimit="10" fill="none" stroke-width="12px"></path><path d="M583.89,560.47c.43-15.13,6.67-30.09,15.1-41.33a72.82,72.82,0,0,1,7.12-8.53,69.73,69.73,0,0,1,90.17-8.95,73.27,73.27,0,0,1,6.53,5.13c27,21.45,30.12,63.14,15.32,93.23a62.31,62.31,0,0,1-4.78,6.86,72.09,72.09,0,0,1-7.58,8.13c-20.27,17.83-51.81,22.13-77.41,12.42a71.34,71.34,0,0,1-10.55-5c-17.9-10.78-30.37-31.09-33.43-52.23A62.93,62.93,0,0,1,583.89,560.47Z" fill="#CC734C"></path><path d="M589.38,549c.42-14.15,6.42-28.15,14.52-38.66a70.56,70.56,0,0,1,6.86-8A68.55,68.55,0,0,1,697.53,494a69.81,69.81,0,0,1,6.28,4.79c26,20.07,29,59.07,14.74,87.22a56.5,56.5,0,0,1-4.6,6.42,68.91,68.91,0,0,1-7.29,7.6c-19.51,16.68-49.86,20.71-74.49,11.62A68.79,68.79,0,0,1,622,606.9c-17.22-10.08-29.22-29.08-32.17-48.85A56.34,56.34,0,0,1,589.38,549Z" stroke="#592d3d" fill="#ffffff" stroke-miterlimit="10" stroke-width="12px"></path><circle cx="659.21" cy="550.79" r="12.24" fill="#592d3d"></circle><path d="M718.86,618.11c-10.23,5-20.32,9.55-31.34,12.69a97.34,97.34,0,0,1-16.46,3.3,141.1,141.1,0,0,1-17.69.3A144.2,144.2,0,0,1,633,632.48c-1.93-.31-4.13.51-4.62,2.62-.41,1.81.55,4.28,2.62,4.62a164.26,164.26,0,0,0,19.66,2.1c3.19.13,6.37.06,9.56.16a78.25,78.25,0,0,0,9.06-.21c12-1,23.62-4.28,34.76-8.76,6.32-2.55,12.52-5.4,18.63-8.42a3.77,3.77,0,0,0,1.34-5.13,3.83,3.83,0,0,0-5.13-1.35Z" fill="#592d3d"></path><path d="M365.31,627.42c-11.37,2.16-22.4,3.8-34.06,3.83a95.68,95.68,0,0,1-17-1.36,171.78,171.78,0,0,1-35.56-11.64,3.85,3.85,0,0,0-5.13,1.35c-.95,1.62-.5,4.27,1.34,5.13a164.42,164.42,0,0,0,17.87,7.1c2.91,1,5.87,1.7,8.78,2.6a91.22,91.22,0,0,0,8.91,2.35c11.95,2.42,24.22,2.37,36.31,1,6.88-.76,13.71-1.88,20.51-3.17,2-.37,3.12-2.77,2.62-4.61a3.83,3.83,0,0,0-4.62-2.62Z" fill="#592d3d"></path><g transform="translate(0 -5)"><path d="M243.89,489.13c5.64,15.83,20.9,24.06,33.4,26.94,13.06-20.24,56.65-28.92,89.37-17.44,27.8,5-10.81-25.57-72.47-9-2.31.85-14.56,2.95-30.28-9.19-2.19-1.69,4.68,13.71,12.5,20C265.06,500.21,263.2,500.22,243.89,489.13Z" fill="#592d3d" fill-rule="evenodd"></path><path d="M721.21,500.43c7.82-6.25,14.69-21.65,12.5-20-15.72,12.14-28,10-30.28,9.19-61.66-16.6-100.28,14-72.48,9,32.73-11.48,76.32-2.8,89.38,17.44,12.5-2.88,27.76-11.11,33.4-26.94C734.42,500.22,732.56,500.21,721.21,500.43Z" fill="#592d3d" fill-rule="evenodd"></path></g><path d="M443.14,621.86c0-18.9,113.72-16.06,113.72,0a56.86,56.86,0,0,1-113.72,0Z" fill="#592d3d"></path><path d="M443.14,621.86c0-18.9,113.72-16.06,113.72,0a56.86,56.86,0,0,1-113.72,0Z" fill="none" stroke="#592d3d" stroke-miterlimit="10" stroke-width="6px"></path><path d="M532.49,646.6c0-8.06-14.55-14.6-32.49-14.6s-32.49,6.54-32.49,14.6h0v44.34c0,14.41,14.55,26.08,32.49,26.08s32.49-11.67,32.49-26.08V646.61Z" fill="#f28195"></path><path d="M532.49,646.6c0-8.06-14.55-14.6-32.49-14.6s-32.49,6.54-32.49,14.6h0v44.34c0,14.41,14.55,26.08,32.49,26.08s32.49-11.67,32.49-26.08V646.61Z" fill="none" stroke="#592d3d" stroke-miterlimit="10" stroke-width="8px"></path><path d="M479.31,626.6l.91-.21.76-.14c.49-.08,1-.14,1.46-.18a21.42,21.42,0,0,1,2.89-.1,25,25,0,0,1,5.79.81,21.39,21.39,0,0,1,10.34,6.11A20.07,20.07,0,0,1,506.54,643a17.19,17.19,0,0,1-1.37,10.35c-2.08-2.93-3.66-5.55-5.32-7.76a27.26,27.26,0,0,0-2.46-3,14.09,14.09,0,0,0-2.69-2.16,15.31,15.31,0,0,0-6.11-2.08,25.67,25.67,0,0,0-3.43-.22c-.59,0-1.18,0-1.76,0l-.85.06-.4,0c-.09,0-.29,0-.22,0Z" fill="#592d3d"></path><path d="M421.52,244.56C335.16,273.62,263.78,346.74,245.06,429.8,213,556.34,262.89,634,307.17,681.6c4.37,4.7-69.46-138.26-2.43-241,61.1-2.32,152.42-14.38,195.78-62.86C496.18,398.87,484,415,486,418.18c2.88,4.51,38.19-5.53,47.84-23.54l.83-3.61c34.72,12.58,91.76,26.59,144,6.61C801.81,535.94,691.29,689,700.3,679a265.78,265.78,0,0,0,69-179c0-86.42-44.28-148.89-44.28-148.89C694.5,296.7,641.5,259.24,580.22,242" fill="#FEDC58"></path><path d="M326.66,439.38c5.38-52.22,25-112.5,64.7-181.9h0q-4.07,1.88-8.06,3.88l-.59.29c-1.22.61-2.44,1.24-3.65,1.88l-1,.53q-5.64,3-11.13,6.23l-.9.53c-1.16.69-2.31,1.39-3.46,2.1l-.86.54q-5.37,3.35-10.56,6.93l-1.08.75c-1.08.76-2.16,1.52-3.23,2.29l-.65.47q-3.27,2.39-6.47,4.84l-.62.48c-1,.78-2,1.58-3,2.39l-1.18.94c-1,.81-2,1.62-3,2.45l0,0c-2.11,1.75-4.18,3.55-6.24,5.37l-1.14,1-2.69,2.45L320.53,305q-4.27,4-8.37,8.17l-1.37,1.41c-.8.82-1.59,1.64-2.37,2.47l-1.37,1.48Q305,320.77,303,323c-.46.51-.92,1-1.37,1.54-.71.81-1.41,1.63-2.11,2.46-.51.59-1,1.18-1.51,1.78-.68.81-1.36,1.62-2,2.44-.54.66-1.07,1.33-1.61,2-1.06,1.33-2.11,2.66-3.15,4-.55.7-1.09,1.4-1.62,2.11s-1.2,1.59-1.79,2.4l-1.59,2.18c-.56.78-1.13,1.55-1.68,2.33-.94,1.34-1.88,2.69-2.8,4.05-.5.73-1,1.48-1.48,2.22s-1.11,1.66-1.65,2.5-1,1.54-1.48,2.31-1.13,1.8-1.69,2.71c-.43.69-.86,1.38-1.28,2.07q-1.32,2.19-2.6,4.4c-.42.72-.82,1.44-1.23,2.16-.54.95-1.08,1.91-1.61,2.87-.4.73-.8,1.46-1.19,2.19-.64,1.19-1.27,2.39-1.89,3.59-.41.78-.81,1.56-1.21,2.34-.64,1.28-1.28,2.55-1.9,3.84-.34.69-.67,1.39-1,2.09-.52,1.09-1,2.19-1.54,3.29l-.91,2q-1.11,2.47-2.17,5c-.22.52-.43,1.05-.65,1.57-.53,1.27-1,2.54-1.56,3.82-.26.67-.53,1.34-.79,2-.49,1.26-1,2.53-1.45,3.8l-.61,1.65q-1,2.63-1.86,5.26l-.56,1.7q-.66,2-1.29,4c-.2.63-.4,1.27-.59,1.91q-.72,2.31-1.38,4.63c-.1.33-.2.66-.29,1q-.78,2.76-1.5,5.54l-.45,1.78c-.19.74-.37,1.49-.55,2.24-1.56,6.69-2.88,13.23-4,19.64-.1.65-.22,1.3-.32,1.95l-.24,1.51q-.45,2.94-.82,5.89c-.06.43-.11.87-.16,1.3-.2,1.59-.38,3.19-.55,4.79l-.18,1.81c-.17,1.68-.32,3.37-.45,5.06l-.09,1q-.23,3-.38,6.05c0,.53-.05,1.07-.08,1.6q-.11,2.36-.18,4.71c0,.59,0,1.18-.05,1.77,0,2.05-.07,4.11-.07,6.17v.1q0,3.31.08,6.62c0,.76.06,1.52.08,2.28.05,1.47.1,2.94.17,4.41.05.89.11,1.77.16,2.66.08,1.33.16,2.66.25,4,.07,1,.16,1.89.24,2.83.11,1.26.21,2.52.34,3.77.09,1,.21,1.94.31,2.91.14,1.21.27,2.43.42,3.64.12,1,.26,2,.39,2.95.16,1.18.33,2.37.5,3.55.15,1,.31,2,.47,3,.19,1.16.37,2.33.58,3.49.17,1,.35,2,.54,3,.21,1.15.43,2.3.66,3.44s.4,2,.61,3c.24,1.14.48,2.27.74,3.4s.45,2,.68,2.93c.26,1.13.54,2.25.82,3.36s.49,1.95.75,2.91c.29,1.12.59,2.23.9,3.34.27,1,.53,1.92.81,2.87.32,1.11.65,2.21,1,3.31s.57,1.89.87,2.84.71,2.19,1.07,3.28c.31.93.61,1.87.93,2.8l1.15,3.27,1,2.74c.41,1.09.83,2.18,1.25,3.27.34.89.68,1.79,1,2.68.44,1.09.89,2.19,1.34,3.28.36.86.71,1.73,1.08,2.59.48,1.12,1,2.22,1.46,3.33.36.83.72,1.65,1.09,2.47.52,1.16,1.07,2.3,1.61,3.44.36.77.71,1.54,1.08,2.3.6,1.26,1.23,2.5,1.86,3.75l.95,1.9q2.88,5.61,6,11.07c.36.62.73,1.23,1.09,1.84.7,1.2,1.39,2.4,2.11,3.58.44.72.89,1.42,1.33,2.14.66,1.07,1.32,2.14,2,3.19.48.76,1,1.5,1.47,2.24.65,1,1.31,2,2,3,.51.76,1,1.52,1.56,2.28.66,1,1.32,1.92,2,2.88.54.77,1.1,1.53,1.65,2.3s1.34,1.85,2,2.77,1.15,1.53,1.72,2.29l2.07,2.7c.59.76,1.19,1.51,1.79,2.26s1.41,1.76,2.12,2.63,1.23,1.49,1.85,2.23,1.44,1.72,2.17,2.57,1.27,1.47,1.91,2.2l2.22,2.5c.65.73,1.31,1.44,2,2.16l1.15,1.25c2.9,1.92-68.91-139.3-2.51-241.08C311.7,440.33,319,439.94,326.66,439.38Z" fill="#EDBF2E"></path><path d="M657.94,378.93s-2.1,20.81-50.63,28.22c23.11,1.6,47.74-.46,71.38-9.51C681.91,401.25,657.94,378.93,657.94,378.93Z" fill="#EDBF2E"></path><path d="M304.74,441s-11,1.14-30.77-1.89" fill="#FEDC58"></path><path d="M305.35,447c-.51.08-.81.11-1.19.15s-.71.07-1.07.1c-.7,0-1.39.08-2.08.08-1.37,0-2.73,0-4.08-.16a61,61,0,0,1-8-1.22c-1.31-.29-2.61-.59-3.9-1a31.69,31.69,0,0,1-3.83-1.25,22.55,22.55,0,0,1-7.25-4.59,23.84,23.84,0,0,1,4.11-1.63,31.51,31.51,0,0,1,3.95-.91c2.59-.42,5.12-.55,7.64-.79s5-.39,7.45-.53c1.22-.08,2.44-.12,3.63-.17l1.78,0c.29,0,.59,0,.86,0s.6,0,.73,0Z" fill="#592d3d"></path><path d="M677,396.19s-10.71-14.3-40.38-31" fill="#FEDC58"></path><path d="M672.14,399.78l-1.77-1.91-2-2.12c-1.39-1.41-2.82-2.85-4.27-4.25-2.92-2.82-5.95-5.62-9-8.4s-6.3-5.44-9.43-8.32c-1.56-1.44-3.13-2.91-4.63-4.52a48,48,0,0,1-4.39-5.1,43.5,43.5,0,0,1,6.65,1.34,60,60,0,0,1,6.24,2.24c2,.89,4,1.83,5.91,2.91s3.84,2.13,5.72,3.29A96.15,96.15,0,0,1,672,382.62c1.71,1.45,3.43,2.91,5,4.53.82.79,1.61,1.63,2.39,2.5.39.45.78.87,1.16,1.35s.72.89,1.22,1.59Z" fill="#592d3d"></path><path d="M421.52,244.56C335.16,273.62,263.78,346.74,245.06,429.8,213,556.34,262.89,634,307.17,681.6c4.37,4.7-69.46-138.26-2.43-241,61.1-2.32,152.42-14.38,195.78-62.86C496.18,398.87,484,415,486,418.18c2.88,4.51,38.19-5.53,47.84-23.54l.83-3.61c34.72,12.58,91.76,26.59,144,6.61C801.81,535.94,691.29,689,700.3,679a265.78,265.78,0,0,0,69-179c0-86.42-44.28-148.89-44.28-148.89C694.5,296.7,641.5,259.24,580.22,242" fill="none" stroke="#592d3d" stroke-miterlimit="10" stroke-width="12px"></path><path d="M520.11,249.17a367.15,367.15,0,0,0-42.48,4.93c-3.49.68-7,1.42-10.44,2.06s-6.9,1.61-10.35,2.41l-10.27,2.72c-3.39,1-6.76,2.08-10.14,3.11A312.8,312.8,0,0,0,397,280.14a347.55,347.55,0,0,0-37.25,21A183.48,183.48,0,0,1,394.83,276a218.27,218.27,0,0,1,39.76-17.3c3.47-1,6.93-2.08,10.42-3.05s7-1.82,10.54-2.59,7.1-1.41,10.66-2,7.15-1.08,10.74-1.52A189.39,189.39,0,0,1,520.11,249.17Z" fill="#ffffff"></path><path d="M529.83,233.83a70.16,70.16,0,0,1,15.44-1.92c2.56-.06,5.11,0,7.67.13s5.12.3,7.68.52a138.69,138.69,0,0,1,15.35,2.2A95.37,95.37,0,0,1,591.05,239l-3.9,11.35c-4.61-1.38-9.24-2.78-13.94-4.07s-9.45-2.51-14.25-3.71l-7.25-1.76c-2.43-.57-4.87-1.15-7.3-1.81A85.14,85.14,0,0,1,529.83,233.83Z" fill="#592d3d"></path><path d="M412.45,241.49a96.65,96.65,0,0,1,13.65-4.15,138.88,138.88,0,0,1,14-2.45c2.34-.28,4.68-.53,7-.71s4.69-.33,7-.34a57.35,57.35,0,0,1,14.27,1.58,77.5,77.5,0,0,1-13.13,5.5c-2.19.73-4.39,1.37-6.59,2l-6.55,1.93c-4.34,1.32-8.67,2.6-12.94,4s-8.52,2.72-12.79,4Z" fill="#592d3d"></path><circle cx="514.26" cy="233.25" r="5.84" fill="#592d3d"></circle><circle cx="497.99" cy="233.25" r="4.13" fill="#592d3d"></circle><path d="M407.29,474.84H286.65c-5.56,0-11.12-.08-16.68,0h-.24c-5.23,0-10.24,4.6-10,10a10.17,10.17,0,0,0,10,10H390.37c5.55,0,11.12.08,16.68,0h.24c5.23,0,10.24-4.6,10-10a10.18,10.18,0,0,0-10-10Z" fill="#592d3d"></path><path d="M726.32,474.84H605.68c-5.56,0-11.12-.08-16.68,0h-.24c-5.23,0-10.24,4.6-10,10a10.17,10.17,0,0,0,10,10H709.4c5.56,0,11.12.08,16.68,0h.24c5.23,0,10.24-4.6,10-10a10.18,10.18,0,0,0-10-10Z" fill="#592d3d"></path><g transform="scale(1)" style="transform-origin: center center;"><path d="M765.63,495.43s.3-2.94.8-8.24C759.75,345.82,643,233.25,500,233.25c-147.32,0-266.75,119.43-266.75,266.75,0,7.28.31,14.49.89,21.63,12.11-39.32,161.32-77.95,298.44-133.08C631.75,452.24,765.63,495.43,765.63,495.43Z" opacity="0.15"></path><path d="M747.94,163.66l0,0C684.65,74.76,266,93.83,204.16,155.69c-66.94,66.94,29.18,351,29.18,351,0-41.1,160.33-82.31,303.37-139.83,99.17,63.69,228.92,108.54,228.92,108.54S793.59,209.32,747.94,163.66Z" fill="#633749"></path><path d="M610.06,159.09c-36.6-4-184.31-1.44-322.45,25.65A481,481,0,0,0,235,197.59c-4.25,1.37-8.49,2.76-12.62,4.33s-8.24,3.18-12.18,5a112.44,112.44,0,0,0-11.34,5.93c-3.54,2.16-10.85,8.81-13.51,11.39l-7.3-15.56a69.81,69.81,0,0,1,12.33-9.59,116.58,116.58,0,0,1,13-6.93,217.66,217.66,0,0,1,26.74-10.11,460.64,460.64,0,0,1,54.55-12.9c18.3-3.27,36.69-5.71,55.1-7.7s35.8-7.94,54.26-8.88C494.59,148.61,592.19,154.62,610.06,159.09Z" fill="#5E3244"></path><path d="M188.17,320.14c3.47-1.42,6.8-2.75,10.2-4.07s6.78-2.61,10.18-3.87c6.79-2.57,13.62-5,20.45-7.36q20.52-7.09,41.26-13.47c6.91-2.14,13.82-4.25,20.78-6.22l10.42-3c3.47-1,6.94-2,10.44-2.93l20.94-5.59,21-5.25C382,261.7,484.59,232.18,513.37,230c-7,1.8-168.2,54.82-176.74,57.39L316,293.56q-20.57,6.22-41,12.91c-6.83,2.16-13.6,4.47-20.38,6.76s-13.54,4.65-20.3,7l-10.1,3.61q-5.07,1.77-10.08,3.64l-10,3.71c-3.32,1.23-6.69,2.52-9.9,3.78Z" fill="#5E3244"></path><path d="M711.7,270.48c-39.92,36.15-102.55,67-169.48,94.19l16.51,15.78h0S659.21,340.49,711.7,270.48Z" fill="#5E3244"></path><path d="M214.45,457.18a24.45,24.45,0,0,1,.66-5.43,27,27,0,0,1,1.75-4.9,36.8,36.8,0,0,1,5.26-8,72.69,72.69,0,0,1,13-11.7,206,206,0,0,1,28.63-16.72c19.57-9.69,39.67-17.6,59.8-25.27s40.4-14.82,60.64-22S424.76,349,445,341.87c40.42-14.25,79.8-31.3,119.21-47.95,9.86-4.14,93.82-54.66,102.72-60.67-8.32,6.8-67.53,50.51-99.82,67.22-39.1,18-78.43,35.84-118.64,50.95-20.13,7.5-40.29,14.87-60.43,22.25s-40.27,14.71-60.19,22.46c-10,3.88-19.86,7.85-29.66,12s-19.51,8.46-28.95,13.15A195.93,195.93,0,0,0,242.3,437a64.46,64.46,0,0,0-10.93,9.68c-3,3.49-7.94,11.25-7.92,14.53Z" fill="#5E3244"></path><path d="M747.94,163.66l0,0C684.65,74.76,266,93.83,204.16,155.69c-66.94,66.94,29.18,351,29.18,351,0-41.1,160.33-82.31,303.37-139.83,99.17,63.69,228.92,108.54,228.92,108.54S793.59,209.32,747.94,163.66Z" fill="none" stroke="#592d3d" stroke-miterlimit="10" stroke-width="12px"></path><path d="M534.47,361.33c16.1-6.69,32.19-13.37,48.12-20.36l6-2.61,5.95-2.67,6-2.66,5.91-2.76,5.92-2.73c2-.91,3.92-1.88,5.88-2.81,3.91-1.89,7.83-3.75,11.69-5.74q23.34-11.6,45.56-25.15a427.09,427.09,0,0,0,43-29.7c-1.44,1.66-2.86,3.34-4.34,5s-2.9,3.33-4.49,4.84c-3.12,3.11-6.22,6.29-9.55,9.17-1.64,1.49-3.31,2.92-5,4.39s-3.41,2.8-5.12,4.21-3.45,2.76-5.2,4.11l-5.32,4A448.92,448.92,0,0,1,634.62,328c-3.84,2.18-7.74,4.23-11.63,6.29s-7.8,4.1-11.74,6.08l-5.9,3-6,2.87c-4,1.91-7.92,3.84-11.93,5.64q-24,11.06-48.52,20.65Z" fill="#592d3d"></path><path d="M769.08,431.09c-1.42-.23-2.71-.46-4-.72s-2.63-.53-3.94-.82c-2.62-.55-5.2-1.21-7.79-1.86q-7.74-2-15.34-4.43a315.52,315.52,0,0,1-29.83-11.2A306.66,306.66,0,0,1,679.61,398a208.59,208.59,0,0,1-26.43-17.56c2.42,1.09,4.82,2.19,7.19,3.35s4.7,2.34,7.12,3.39c4.77,2.18,9.47,4.49,14.28,6.55q14.25,6.56,28.91,12l7.33,2.71L725.4,411c4.94,1.65,9.9,3.22,14.89,4.67s10,2.83,15,4.13l3.77.91c1.26.32,2.52.62,3.78.89,2.5.57,5.08,1.14,7.49,1.59Z" fill="#592d3d"></path><path d="M615.36,160c-36.49-4.61-73.12-6.62-109.74-7.18s-73.25.43-109.73,3.15c-18.24,1.33-36.45,3.08-54.58,5.35s-36.18,5-54.06,8.36a484.87,484.87,0,0,0-52.83,12.84,211.12,211.12,0,0,0-25,9.44A113.77,113.77,0,0,0,197.84,198a56.05,56.05,0,0,0-9.85,7.45L179.5,197a67.76,67.76,0,0,1,12-9.28,115.9,115.9,0,0,1,12.81-6.8,226.14,226.14,0,0,1,26.49-10A457.87,457.87,0,0,1,285.08,158c36.5-6.53,73.31-10.19,110.17-12.17a1068.52,1068.52,0,0,1,110.62-.17c9.2.53,18.4,1.16,27.59,1.94s18.35,1.78,27.49,2.93A542.75,542.75,0,0,1,615.36,160Z" fill="#592d3d"></path><path d="M210.05,449.36a24.5,24.5,0,0,1,.64-5.37,26.93,26.93,0,0,1,1.71-4.87,36.36,36.36,0,0,1,5.18-8,71.43,71.43,0,0,1,12.89-11.68,202.41,202.41,0,0,1,28.39-16.69c19.41-9.65,39.35-17.52,59.32-25.14s40.08-14.74,60.17-21.86,40.21-14,60.25-21.15c40.11-14.17,80-28.92,119.07-45.49q14.67-6.18,29.14-12.83t28.69-13.79q14.22-7.17,28-15.08t27.08-16.87c-8.25,6.75-16.94,13-25.81,18.91s-18,11.55-27.24,16.89S598.9,276.71,589.4,281.6s-19.15,9.51-28.82,14c-38.79,18-78.6,33.46-118.5,48.49-20,7.46-40,14.78-59.95,22.12s-39.95,14.62-59.72,22.33c-9.87,3.85-19.7,7.81-29.41,11.95s-19.35,8.41-28.71,13.08a191.39,191.39,0,0,0-26.63,15.63,63.16,63.16,0,0,0-10.78,9.64c-3,3.47-4.85,7.2-4.83,10.48Z" fill="#592d3d"></path><path d="M184.48,311.25C198,305.7,211.57,300.86,225.22,296s27.38-9.26,41.18-13.53c27.6-8.52,55.41-16.36,83.45-23.23S406,246,434.45,240.93L445.09,239l5.33-1,5.34-.85L477.15,234c7.13-1.1,14.3-1.92,21.46-2.74s14.33-1.6,21.5-2.31q-10.54,2.44-21.09,4.73c-7,1.55-14.09,2.94-21.08,4.63-14,3.22-28.07,6.22-42,9.66q-42,9.66-83.48,21.17l-20.73,5.79L311.07,281c-13.74,4.12-27.44,8.36-41.07,12.81-6.84,2.15-13.63,4.46-20.42,6.74s-13.57,4.62-20.35,6.94c-13.48,4.75-27,9.69-40.19,14.83Z" fill="#592d3d"></path></g></g></svg>