<svg xmlns="http://www.w3.org/2000/svg" viewBox="0 0 1000 990"><g><path d="M501.71,209.52c-166.14,0-300.83,134.68-300.83,300.83V816.78c0,166.14,134.69,300.83,300.83,300.83S802.54,982.92,802.54,816.78V510.35C802.54,344.2,667.85,209.52,501.71,209.52Z" fill="#FEDC58" stroke="#592d3d" stroke-miterlimit="10" stroke-width="12px"></path><path d="M610,758.72c90.76,0,72,114.24,72.87,241.28H610Z" fill="#fdd2b2"></path><path d="M632.74,831.87,610,870l11.38,130h31.76C653.91,819.73,632.74,831.87,632.74,831.87Z" fill="#f3ab98"></path><path d="M233.25,500c0-147.32,119.43-266.75,266.75-266.75S766.75,352.68,766.75,500A266.22,266.22,0,0,1,668.1,707.12q-8.21,6.68-16.94,12.69C591,758,515,758,446.39,751.89c-6.66-1-13.3-2.26-19.89-3.71-26.33-5.8-51.82-14.75-75.37-27.8Q342.4,715,334.2,708.76a199.59,199.59,0,0,1-15.8-13.38q-7.14-6.63-13.79-13.78A265.86,265.86,0,0,1,233.25,500Z" fill="#fdd2b2"></path><path d="M269.61,634.48c.7,1.2,1.39,2.4,2.11,3.58.43.72.88,1.42,1.33,2.14.66,1.07,1.32,2.14,2,3.19.48.76,1,1.5,1.46,2.24.66,1,1.32,2,2,3,.51.76,1,1.52,1.56,2.28.66,1,1.32,1.92,2,2.88.54.77,1.1,1.53,1.65,2.3s1.34,1.85,2,2.77,1.15,1.53,1.73,2.29,1.37,1.8,2.07,2.7,1.19,1.51,1.79,2.26,1.41,1.76,2.12,2.63,1.23,1.49,1.85,2.23,1.44,1.72,2.17,2.57,1.27,1.47,1.91,2.2l2.22,2.5c.65.73,1.31,1.44,2,2.16.86.94,1.73,1.87,2.6,2.79l1.21,1.28c1.29,1.34,2.59,2.68,3.91,4l.26.27c1.29,1.28,2.6,2.55,3.91,3.81l1.58,1.5c.95.89,1.9,1.78,2.86,2.66l1.16,1.06c1,.94,2.09,1.86,3.14,2.78q4.9,4.27,10,8.19,8.19,6.24,16.93,11.62c23.55,13,49,22,75.37,27.8,6.59,1.45,13.23,2.7,19.89,3.71,42.1,3.75,87,5.18,129.28-3.08C508.45,729,185.59,612.74,388.8,257.48h0c-2.72,1.25-5.4,2.54-8.06,3.88l-.59.29c-1.22.61-2.44,1.24-3.65,1.88l-1,.53c-3.76,2-7.48,4.07-11.13,6.23l-.9.53c-1.16.69-2.31,1.39-3.46,2.1l-.87.54q-5.36,3.35-10.55,6.93l-1.08.75c-1.09.76-2.16,1.52-3.23,2.29l-.66.47q-3.27,2.39-6.46,4.84l-.62.48c-1,.78-2,1.58-3,2.39l-1.17.94c-1,.81-2,1.62-3,2.45l0,0c-2.11,1.75-4.19,3.55-6.24,5.37l-1.14,1-2.69,2.45L318,305q-4.28,4-8.37,8.17l-1.38,1.41c-.79.82-1.58,1.64-2.36,2.47-.46.49-.92,1-1.37,1.48q-2.06,2.2-4.06,4.46c-.45.51-.91,1-1.36,1.54-.71.81-1.41,1.63-2.11,2.45l-1.51,1.79c-.68.81-1.36,1.62-2,2.44-.54.66-1.08,1.33-1.61,2-1.07,1.33-2.12,2.66-3.16,4-.54.7-1.08,1.4-1.61,2.11s-1.2,1.59-1.79,2.4-1.07,1.45-1.59,2.18-1.13,1.55-1.68,2.33q-1.42,2-2.8,4.05c-.5.73-1,1.48-1.49,2.22s-1.1,1.66-1.64,2.5l-1.49,2.31-1.68,2.71c-.43.69-.86,1.38-1.28,2.07-.89,1.46-1.75,2.93-2.61,4.4l-1.22,2.16c-.54.95-1.08,1.91-1.61,2.87-.4.73-.8,1.46-1.19,2.19-.64,1.19-1.27,2.39-1.9,3.59l-1.2,2.34c-.64,1.28-1.28,2.55-1.91,3.84-.33.69-.67,1.39-1,2.09-.52,1.09-1,2.19-1.53,3.29-.31.66-.61,1.32-.91,2q-1.11,2.47-2.17,5c-.22.52-.43,1.05-.65,1.57-.53,1.27-1.05,2.54-1.56,3.82-.27.67-.53,1.34-.79,2-.5,1.26-1,2.53-1.45,3.8-.21.55-.42,1.1-.62,1.65q-.94,2.63-1.85,5.26l-.56,1.7q-.66,2-1.29,4l-.6,1.91c-.47,1.54-.93,3.08-1.37,4.63-.1.33-.2.66-.29,1q-.78,2.76-1.5,5.54c-.16.59-.3,1.19-.45,1.78-.35,1.39-.69,2.78-1,4.18l-.42,1.75c-.43,1.9-.85,3.8-1.24,5.71l-.15.77q-.51,2.55-1,5.1c-.11.61-.21,1.21-.32,1.82-.26,1.49-.51,3-.74,4.5-.08.51-.17,1-.24,1.52-.3,1.95-.57,3.91-.83,5.88l-.15,1.3c-.2,1.59-.38,3.19-.55,4.79-.06.6-.13,1.2-.19,1.81-.16,1.68-.31,3.37-.45,5.06,0,.35-.06.69-.08,1q-.22,3-.39,6.05c0,.53,0,1.07-.07,1.6q-.1,2.36-.18,4.71c0,.59,0,1.18,0,1.77,0,2.05-.08,4.11-.08,6.17,0,0,0,.07,0,.1,0,2.22,0,4.42.08,6.62,0,.76.06,1.52.08,2.28.05,1.47.1,2.94.17,4.41,0,.89.11,1.77.16,2.66.08,1.33.15,2.66.25,4,.07,1,.16,1.89.24,2.83.11,1.26.21,2.52.34,3.77.09,1,.21,1.94.31,2.91.14,1.21.27,2.43.42,3.64.12,1,.26,2,.39,2.95.16,1.18.32,2.37.5,3.55.15,1,.31,2,.47,3,.18,1.16.37,2.33.57,3.49.18,1,.36,2,.55,3,.21,1.15.43,2.3.65,3.44s.41,2,.62,3c.24,1.14.48,2.27.74,3.4s.44,2,.68,2.93c.26,1.13.54,2.25.82,3.36s.49,1.95.74,2.91c.3,1.12.6,2.23.91,3.34.26,1,.53,1.92.81,2.87.32,1.11.65,2.21,1,3.31s.58,1.89.88,2.84.7,2.19,1.06,3.28.62,1.87.94,2.8c.38,1.09.76,2.18,1.15,3.27.33.91.65,1.83,1,2.74l1.24,3.27c.35.89.69,1.79,1,2.68.44,1.09.89,2.19,1.34,3.28.36.86.71,1.73,1.08,2.59.47,1.12,1,2.22,1.45,3.33.37.82.73,1.65,1.1,2.47.52,1.16,1.07,2.3,1.6,3.44l1.08,2.3c.61,1.26,1.24,2.5,1.87,3.75.32.63.62,1.27.95,1.9q2.88,5.61,6,11.07C268.88,633.26,269.25,633.87,269.61,634.48Z" fill="#f3ab98"></path><path d="M233.25,500c0-147.32,119.43-266.75,266.75-266.75S766.75,352.68,766.75,500A266.22,266.22,0,0,1,668.1,707.12q-8.21,6.68-16.94,12.69C591,758,515,758,446.39,751.89c-6.66-1-13.3-2.26-19.89-3.71-26.33-5.8-51.82-14.75-75.37-27.8Q342.4,715,334.2,708.76a199.59,199.59,0,0,1-15.8-13.38q-7.14-6.63-13.79-13.78A265.86,265.86,0,0,1,233.25,500Z" fill="none" stroke="#592d3d" stroke-miterlimit="10" stroke-width="12px"></path><path d="M386.12,758.72c-90.77,0-72,114.24-72.87,241.28h72.87Z" fill="#fdd2b2"></path><path d="M367.23,831.87,390,870l-11.39,130H346.88C346.07,819.73,367.23,831.87,367.23,831.87Z" fill="#f3ab98"></path><path d="M619.47,1070H380.53a13.28,13.28,0,0,1-13.27-13.28V772a13.28,13.28,0,0,1,13.27-13.28H613.76c13.09,0,19,7.66,19,19.88v278.08A13.28,13.28,0,0,1,619.47,1070Z" fill="#fdd2b2"></path><path d="M629.05,766.62a19.33,19.33,0,0,1-2.51-4,17.25,17.25,0,0,0-8.28-3.51,28.88,28.88,0,0,0-4.5-.34H380.53A13.28,13.28,0,0,0,367.26,772c29,10.42,83.29,16.24,132.74,16.24C563.06,788.24,604.38,778.89,629.05,766.62Z" fill="#f3ab98"></path><path d="M610,758.72c90.76,0,72,114.24,72.87,241.28H632.74" fill="none" stroke="#592d3d" stroke-linecap="square" stroke-miterlimit="10" stroke-width="12px"></path><path d="M386.12,758.72c-90.77,0-72,114.24-72.87,241.28h50.07" fill="none" stroke="#592d3d" stroke-linecap="square" stroke-miterlimit="10" stroke-width="12px"></path><path d="M380.53,758.82l233.23-.1" fill="none" stroke="#592d3d" stroke-miterlimit="10" stroke-width="12px"></path><path d="M380.53,1070H497.15C388,1070,396.24,838.82,367.26,838.82v217.86A13.28,13.28,0,0,0,380.53,1070Z" fill="#f3ab98"></path><path d="M361.26,860.85c-.19-3.67-.11-7.34.05-11s.47-7.35.86-11c.2-1.84.4-3.67.65-5.51s.49-3.67.85-5.51a44.18,44.18,0,0,1,3.59-11,44.18,44.18,0,0,1,3.59,11c.36,1.84.62,3.67.85,5.51s.45,3.67.65,5.51c.38,3.67.68,7.34.85,11s.25,7.34.06,11Z" fill="#592d3d"></path><path d="M632.74,870v8c.26,34,.26,69,0,102.75,0,2.87,0,5.72,0,8.53v67.41A13.28,13.28,0,0,1,619.47,1070H380.53a13.28,13.28,0,0,1-13.27-13.28V998.52c0-2.51,0-5.07,0-7.65-.25-34.87-.25-69.87,0-105.3V860.85" fill="none" stroke="#592d3d" stroke-miterlimit="10" stroke-width="12px"></path><path d="M626.74,870c-.19-4.17-.1-8.35.06-12.53s.47-8.35.85-12.53c.2-2.09.41-4.18.65-6.27s.49-4.17.85-6.26a55.09,55.09,0,0,1,3.59-12.53,55.09,55.09,0,0,1,3.59,12.53c.36,2.09.62,4.18.85,6.26s.45,4.18.65,6.27c.38,4.18.69,8.35.85,12.53s.25,8.36.06,12.53Z" fill="#592d3d"></path><path d="M570.68,842.45C570.9,833,582.9,829,588.9,835a10.61,10.61,0,1,1-15.16,14.85A10.4,10.4,0,0,1,570.68,842.45Z" fill="#592d3d"></path><path d="M408.11,842.15C407.9,834,416.9,830,422.9,833c8,3,8,14,0,19-4,2-8,0-11.75-2.48A10.39,10.39,0,0,1,408.11,842.15Z" fill="#592d3d"></path><path d="M500,831.77a27.13,27.13,0,0,1,1.5,5.84,42.47,42.47,0,0,1,.49,5.84l.3,11.69c.09,3.89.21,7.79.25,11.69l.17,11.67c.23,15.57.22,31.16.28,46.74s.18,31.16,0,46.74c-.09,7.79-.3,15.58-.53,23.37-.1,3.89-.29,7.79-.67,11.68a92.5,92.5,0,0,1-1.77,11.69,92.5,92.5,0,0,1-1.77-11.69c-.38-3.89-.57-7.79-.67-11.68-.23-7.79-.44-15.58-.53-23.37-.2-15.58,0-31.16,0-46.74s0-31.15.18-46.73l.17-11.7.33-11.68.33-11.68a44.11,44.11,0,0,1,.5-5.84A27.13,27.13,0,0,1,500,831.77Z" fill="#f3ab98"></path><path d="M425.22,883a18.51,18.51,0,0,1,4.67-1.5,29.75,29.75,0,0,1,4.68-.5l9.35-.33,18.7-.41c12.46-.19,24.91-.24,37.38-.27s24.93-.16,37.39,0c6.23.09,12.46.3,18.7.53,3.11.11,6.23.3,9.34.67a61.34,61.34,0,0,1,9.35,1.78,59.17,59.17,0,0,1-9.35,1.77c-3.11.38-6.23.57-9.34.67-6.24.23-12.47.43-18.7.52-12.46.19-24.92,0-37.39,0s-24.93,0-37.4-.15c-6.23-.06-12.46-.26-18.68-.5l-9.35-.34a29.5,29.5,0,0,1-4.67-.5A18.45,18.45,0,0,1,425.22,883Z" fill="#f3ab98"></path><path d="M442.41,914.38a12.51,12.51,0,0,1,3.74-1.11,18.35,18.35,0,0,1,3.62-.15c2.39.1,4.78.16,7.17.21,4.78.11,9.56.15,14.34.17,9.63,0,19.09.08,28.76-.21s19.26-.43,28.88-.39c4.81,0,9.62.13,14.42.24a70.37,70.37,0,0,1,7.23.47,38.17,38.17,0,0,1,7.27,1.53,36.56,36.56,0,0,1-7.16,2,61.08,61.08,0,0,1-7.21.86c-4.82.35-9.64.65-14.45.82-9.64.36-19.27.32-28.88.45-4.81,0-9.61.22-14.48.1s-9.69-.13-14.52-.31-9.68-.58-14.5-1.08c-2.42-.27-4.82-.57-7.23-.9a16.82,16.82,0,0,1-3.57-.84A11.51,11.51,0,0,1,442.41,914.38Z" fill="#f3ab98"></path><path d="M438.93,949.87a13.07,13.07,0,0,1,3.82-1.5,19.13,19.13,0,0,1,3.82-.49l7.63-.32c5.09-.18,10.19-.33,15.28-.41C479.66,947,489.84,947,500,947s20.36-.17,30.54,0c5.09.09,10.18.3,15.27.53a72.73,72.73,0,0,1,7.63.66A41.2,41.2,0,0,1,561.1,950a41.25,41.25,0,0,1-7.63,1.77,70.34,70.34,0,0,1-7.64.67c-5.09.23-10.18.44-15.27.53-10.18.2-20.37.06-30.55,0s-20.36-.06-30.54-.25c-5.09-.1-10.19-.28-15.28-.49l-7.63-.37a19.33,19.33,0,0,1-3.82-.5A12.85,12.85,0,0,1,438.93,949.87Z" fill="#f3ab98"></path><path d="M271.4,568.53c-1-28.36,18-52.36,43.28-63.56a62.37,62.37,0,0,1,8.16-2.7A70,70,0,0,1,365.05,505a71.67,71.67,0,0,1,8.93,4.16c29.53,15.89,42.79,53.25,31.36,83.46a61.68,61.68,0,0,1-4.18,8.82,54.68,54.68,0,0,1-17.51,20.83,69.25,69.25,0,0,1-7.85,5c-27.38,13-64.38,9-86.45-11.4a68.39,68.39,0,0,1-6.11-7.47,64.89,64.89,0,0,1-5.57-9.5A55.78,55.78,0,0,1,272,577.1,75.67,75.67,0,0,1,271.4,568.53Z" fill="#f3ab98"></path><path d="M269.77,550.18c-1-28.36,18-52.36,43.28-63.56a62.23,62.23,0,0,1,8.15-2.7,70,70,0,0,1,42.22,2.68,71.54,71.54,0,0,1,8.92,4.16c29.53,15.89,42.79,53.26,31.36,83.46a59.6,59.6,0,0,1-4.18,8.82,63.85,63.85,0,0,1-4.71,7.8,64.78,64.78,0,0,1-5.68,7,63.08,63.08,0,0,1-7.12,6.07,68.37,68.37,0,0,1-7.85,5c-27.38,13-64.38,9-86.44-11.39a68.28,68.28,0,0,1-6.11-7.48,65,65,0,0,1-5.58-9.5,55.59,55.59,0,0,1-5.71-21.73A71.3,71.3,0,0,1,269.77,550.18Z" fill="#ffffff"></path><circle cx="338.51" cy="541.79" r="12.24" fill="#592d3d"></circle><path d="M399.52,583a59.6,59.6,0,0,0,4.18-8.82,62.5,62.5,0,0,0,2.57-8.64c-68.32-7.75-127,20.81-127,20.81l1.1,1.75c.41.62.82,1.24,1.25,1.84a68.28,68.28,0,0,0,6.11,7.48c22.06,20.36,59.06,24.36,86.44,11.39a68.37,68.37,0,0,0,7.85-5,63.08,63.08,0,0,0,7.12-6.07,64.78,64.78,0,0,0,5.68-7A63.85,63.85,0,0,0,399.52,583Z" fill="#fdd2b2" stroke="#592d3d" stroke-miterlimit="10" stroke-width="6px"></path><path d="M269.77,550.18c-1-28.36,18-52.36,43.28-63.56a62.23,62.23,0,0,1,8.15-2.7,70,70,0,0,1,42.22,2.68,71.54,71.54,0,0,1,8.92,4.16c29.53,15.89,42.79,53.26,31.36,83.46a59.6,59.6,0,0,1-4.18,8.82,63.85,63.85,0,0,1-4.71,7.8,64.78,64.78,0,0,1-5.68,7,63.08,63.08,0,0,1-7.12,6.07,68.37,68.37,0,0,1-7.85,5c-27.38,13-64.38,9-86.44-11.39a68.28,68.28,0,0,1-6.11-7.48,65,65,0,0,1-5.58-9.5,55.59,55.59,0,0,1-5.71-21.73A71.3,71.3,0,0,1,269.77,550.18Z" stroke="#592d3d" stroke-miterlimit="10" fill="none" stroke-width="12px"></path><path d="M583.89,560.47c.43-15.13,6.67-30.09,15.1-41.33a72.82,72.82,0,0,1,7.12-8.53,69.73,69.73,0,0,1,90.17-8.95,73.27,73.27,0,0,1,6.53,5.13c27,21.45,30.12,63.14,15.32,93.23a62.31,62.31,0,0,1-4.78,6.86,72.09,72.09,0,0,1-7.58,8.13c-20.27,17.83-51.81,22.13-77.41,12.42a71.34,71.34,0,0,1-10.55-5c-17.9-10.78-30.37-31.09-33.43-52.23A62.93,62.93,0,0,1,583.89,560.47Z" fill="#fdd2b2"></path><path d="M589.38,549c.42-14.15,6.42-28.15,14.52-38.66a70.56,70.56,0,0,1,6.86-8A68.55,68.55,0,0,1,697.53,494a69.81,69.81,0,0,1,6.28,4.79c26,20.07,29,59.07,14.74,87.22a56.5,56.5,0,0,1-4.6,6.42,68.91,68.91,0,0,1-7.29,7.6c-19.51,16.68-49.86,20.71-74.49,11.62A68.79,68.79,0,0,1,622,606.9c-17.22-10.08-29.22-29.08-32.17-48.85A56.34,56.34,0,0,1,589.38,549Z" stroke="#592d3d" fill="#ffffff" stroke-miterlimit="10" stroke-width="12px"></path><circle cx="659.21" cy="550.79" r="12.24" fill="#592d3d"></circle><path d="M718.86,618.11c-10.23,5-20.32,9.55-31.34,12.69a97.34,97.34,0,0,1-16.46,3.3,141.1,141.1,0,0,1-17.69.3A144.2,144.2,0,0,1,633,632.48c-1.93-.31-4.13.51-4.62,2.62-.41,1.81.55,4.28,2.62,4.62a164.26,164.26,0,0,0,19.66,2.1c3.19.13,6.37.06,9.56.16a78.25,78.25,0,0,0,9.06-.21c12-1,23.62-4.28,34.76-8.76,6.32-2.55,12.52-5.4,18.63-8.42a3.77,3.77,0,0,0,1.34-5.13,3.83,3.83,0,0,0-5.13-1.35Z" fill="#592d3d"></path><path d="M365.31,627.42c-11.37,2.16-22.4,3.8-34.06,3.83a95.68,95.68,0,0,1-17-1.36,171.78,171.78,0,0,1-35.56-11.64,3.85,3.85,0,0,0-5.13,1.35c-.95,1.62-.5,4.27,1.34,5.13a164.42,164.42,0,0,0,17.87,7.1c2.91,1,5.87,1.7,8.78,2.6a91.22,91.22,0,0,0,8.91,2.35c11.95,2.42,24.22,2.37,36.31,1,6.88-.76,13.71-1.88,20.51-3.17,2-.37,3.12-2.77,2.62-4.61a3.83,3.83,0,0,0-4.62-2.62Z" fill="#592d3d"></path><path d="M558.55,642.44c-3.63,0-5.35-1.31-15.58-10.79-7.49-6.93-12.63-10.36-18.91-11.46-7.83-1.37-15.83-.88-24.36,7.68-8.53-8.56-16.52-9-24.36-7.68-6.28,1.1-11.42,4.53-18.91,11.46-10.23,9.48-11.95,10.79-15.58,10.79a1.84,1.84,0,0,0-1.3,3.14q26.25,26.25,60.15,26.28t60.15-26.28A1.84,1.84,0,0,0,558.55,642.44Z" fill="#D69AC7"></path><path d="M559.57,645.84l-.55-2.21c-70.56,16.12-118.17.53-118.17.53l-1.77-.31a1.82,1.82,0,0,0,.47,1.73q26.25,26.25,60.15,26.28Q533.38,671.86,559.57,645.84Z" fill="#C683B4"></path><path d="M479.28,650.39c13.45-.94,26.69-1.44,39.89-3,6.59-.76,13.15-1.74,19.67-2.86s13-2.41,19.51-3.8l1.34,5.85q-9.87,2.34-19.92,3.81t-20.16,2.06c-6.75.37-13.5.54-20.25.27A127.84,127.84,0,0,1,479.28,650.39Z" fill="#592d3d"></path><path d="M441.79,641.31c1.69.43,3.57,1,5.38,1.48s3.65,1.08,5.49,1.63,3.68,1.1,5.52,1.77a27.06,27.06,0,0,1,5.46,2.64,22.06,22.06,0,0,1-6.05.9c-2,0-3.95-.16-5.93-.32s-3.93-.47-5.88-.85a38.82,38.82,0,0,1-5.86-1.55Z" fill="#592d3d"></path><path d="M558.55,642.44c-3.63,0-5.35-1.31-15.58-10.79-7.49-6.93-12.53-11.29-18.91-11.46-11.21-.3-19.15,6.12-24.76,6.12s-10.45-7.53-24-6.12c-6.34.66-11.42,4.53-18.91,11.46-10.23,9.48-11.95,10.79-15.58,10.79a1.84,1.84,0,0,0-1.3,3.14q26.25,26.25,60.15,26.28t60.15-26.28A1.84,1.84,0,0,0,558.55,642.44Z" fill="none" stroke="#592d3d" stroke-miterlimit="10" stroke-width="8px"></path><path d="M524.06,626.48a41.49,41.49,0,0,0-12.19,2.94c-1.94.77-3.87,1.6-5.85,2.42a20.2,20.2,0,0,1-6.42,1.74,8.92,8.92,0,0,1-3.47-.64,24,24,0,0,1-3-1.4,59.7,59.7,0,0,0-5.58-2.83,27.56,27.56,0,0,0-5.94-1.73,38.5,38.5,0,0,0-6.29-.5,26.31,26.31,0,0,1,6.4-.48,24.54,24.54,0,0,1,6.38,1.25,46,46,0,0,1,5.9,2.6c1.87.94,3.71,1.83,5.52,1.74a19.76,19.76,0,0,0,5.8-1.51c2-.71,4-1.51,6-2.13A30,30,0,0,1,524.06,626.48Z" fill="#ffffff"></path><path d="M472.62,652.36c3.22,0,3.23-5,0-5s-3.22,5,0,5Z" fill="#592d3d"></path><path d="M289.63,652.2q6.38,8,13.32,15.47,6.76,7.26,14,14a204.78,204.78,0,0,0,16.07,13.62q8.34,6.34,17.24,11.82c24,13.28,49.91,22.39,76.71,28.3,6.7,1.47,13.46,2.74,20.24,3.77,69.83,6.22,147.18,6.22,208.41-32.65q8.88-6.12,17.25-12.91c15.56-12.65,28-26.65,40.9-44.33-83.93,0-138.94-94.73-207.41-94.73S367.92,652.2,289.63,652.2Z" fill="#f3ab98"></path><path d="M291.53,666.4q6.25,7.85,13.08,15.2,6.64,7.14,13.79,13.78a199.59,199.59,0,0,0,15.8,13.38c5.46,4.16,11.12,8,16.93,11.62,23.55,13,49,22,75.37,27.8,6.59,1.45,13.23,2.7,19.89,3.71C515,758,591,758,651.16,719.81q8.73-6,16.94-12.69a268.58,268.58,0,0,0,41.39-42c-82.46,0-137.71-94.64-205-94.64S368.44,666.4,291.53,666.4Z" fill="#633749" stroke="#592d3d" stroke-miterlimit="10" stroke-width="12px"></path><path d="M453.37,752.49l5.5.43,1.32.1c1.57.11,3.14.23,4.72.33l1.29.09,5.18.33,2,.12,5,.26,2.16.1,3.35.15,2.56.1,4.46.14,3,.08,2.41,0c1.73,0,3.46.06,5.19.08h1.91q5.58,0,11.16-.06l1.1,0c2.44,0,4.87-.11,7.3-.2h.28q6-.23,12-.62l.31,0c10.79-.73,21.53-1.92,32.13-3.68h0q4-.66,7.95-1.43c-33.29-9.82-129.24-43.29-193-117.69-29.32,19.08-59.55,35.28-91.16,35.28l.35.44,2.44,3,.75.9c.8,1,1.62,1.93,2.44,2.88l1.57,1.82.53.6c.65.74,1.31,1.49,2,2.22s1.31,1.44,2,2.16c.86.94,1.73,1.87,2.6,2.79l1.21,1.28c1.29,1.34,2.59,2.68,3.91,4l.26.27c1.29,1.28,2.6,2.55,3.91,3.81l1.58,1.5c.95.89,1.9,1.78,2.86,2.66l1.16,1.06c1,.94,2.09,1.86,3.14,2.78,1.54,1.35,3.1,2.66,4.68,3.95l.42.35q2.44,2,4.93,3.89c5.46,4.16,11.12,8,16.93,11.62a262,262,0,0,0,46.16,19.89c2.07.68,4.15,1.32,6.24,2q11.36,3.4,23,6,5.69,1.26,11.42,2.29c2.82.51,5.64,1,8.47,1.42l5.71.49Z" fill="#5E3244"></path><path d="M579.81,624.61c-6.52-1.65-13-3.05-19.57-4.22s-13.09-2.18-19.63-3-13.12-1.45-19.68-1.89-13.14-.64-19.71-.65h-4.93l-4.93.13c-1.64,0-3.28.11-4.92.19s-3.29.13-4.92.26c-6.57.38-13.11,1.09-19.66,1.87a398,398,0,0,0-39.21,7.32,159.22,159.22,0,0,1,38.13-13.52c3.32-.66,6.64-1.41,10-1.88,1.68-.25,3.35-.56,5-.75l5.06-.6a192.24,192.24,0,0,1,20.36-1c6.79,0,13.59.39,20.34,1.11a193.91,193.91,0,0,1,20.08,3.25,180.43,180.43,0,0,1,19.57,5.41A118.4,118.4,0,0,1,579.81,624.61Z" fill="#592d3d"></path><path d="M364.82,686.87c11.06,3.46,22.25,6.26,33.51,8.69,2.81.59,5.63,1.2,8.45,1.76s5.64,1.12,8.48,1.58c5.66,1,11.32,2,17,2.77,11.38,1.57,22.76,2.94,34.2,3.74s22.88,1.26,34.33,1.29l8.59,0,8.58-.26c2.86,0,5.72-.22,8.58-.37s5.72-.26,8.57-.53c11.43-.76,22.81-2.16,34.18-3.69a531.12,531.12,0,0,0,67.44-15A312.64,312.64,0,0,1,570.36,708c-5.73,1-11.45,2.24-17.24,3-2.89.4-5.77.88-8.67,1.19l-8.7.94c-11.63,1-23.3,1.71-35,1.61s-23.35-.61-35-1.76-23.17-2.82-34.6-5.14a342.06,342.06,0,0,1-33.87-8.46A234,234,0,0,1,364.82,686.87Z" fill="#592d3d"></path><path d="M584.88,662.69c-14.62,1.67-29.24,2.5-43.86,3.13s-29.25.86-43.87.87-29.25-.27-43.87-.86-29.24-1.47-43.86-3.14c14.62-1.68,29.24-2.51,43.86-3.15s29.25-.86,43.87-.85,29.24.28,43.87.86S570.26,661,584.88,662.69Z" fill="#592d3d"></path><path d="M291.53,666.4q6.25,7.85,13.08,15.2,6.64,7.14,13.79,13.78a199.59,199.59,0,0,0,15.8,13.38c5.46,4.16,11.12,8,16.93,11.62,23.55,13,49,22,75.37,27.8,6.59,1.45,13.23,2.7,19.89,3.71C515,758,591,758,651.16,719.81q8.73-6,16.94-12.69a268.58,268.58,0,0,0,41.39-42c-82.46,0-137.71-94.64-205-94.64S368.44,666.4,291.53,666.4Z" fill="none" stroke="#592d3d" stroke-miterlimit="10" stroke-width="12px"></path><path d="M673,659s48.64-10.61,84.3-88.54" fill="none" stroke="#592d3d" stroke-miterlimit="10" stroke-width="12px"></path><path d="M330,659.06s-53.47-13.43-87-87.61" fill="none" stroke="#592d3d" stroke-miterlimit="10" stroke-width="12px"></path><path d="M559.29,397.34c-12.87,24-60,37.44-63.83,31.42-4.3-6.73,37.84-55.32,13.9-106.14" fill="#f3ab98"></path><path d="M746.9,365.72c-43.51-90.29-140.27-142-244.74-142-131.19,0-253.5,95-275.32,223.74,0,0,202.41,15.32,275.25-67.4C511.7,384.77,658.18,457.67,746.9,365.72Z" fill="#FEDC58"></path><path d="M502.16,233.15a361.93,361.93,0,0,0-51.86,7.33l-12.68,3.05c-4.2,1.13-8.36,2.37-12.54,3.55l-12.39,4c-4.09,1.46-8.13,3-12.2,4.54a339.08,339.08,0,0,0-46.87,22.71,388.52,388.52,0,0,0-43.25,29.58,233,233,0,0,1,40.79-33.56,258.22,258.22,0,0,1,47.14-24.31c4.17-1.5,8.32-3.06,12.5-4.51,4.24-1.29,8.44-2.7,12.7-3.9s8.58-2.19,12.89-3.21,8.68-1.76,13-2.53A224.82,224.82,0,0,1,502.16,233.15Z" fill="#592d3d"></path><path d="M537.23,398.81C526.9,418.12,489.07,428.88,486,424c-3.45-5.4,30.38-44.42,11.16-85.22" fill="#FEDC58"></path><path d="M240.15,454.33s185.57,8.28,259.86-72c-5,19.52-15.75,34.09-13.79,37.16,2.89,4.53,38-5.42,48.16-23.35,45.56,19,131.48,41.33,206.15-16.09" fill="none" stroke="#592d3d" stroke-miterlimit="10" stroke-width="12px"></path><path d="M407.29,474.84H286.65c-5.56,0-11.12-.08-16.68,0h-.24c-5.23,0-10.24,4.6-10,10a10.17,10.17,0,0,0,10,10H390.37c5.55,0,11.12.08,16.68,0h.24c5.23,0,10.24-4.6,10-10a10.18,10.18,0,0,0-10-10Z" fill="#592d3d"></path><path d="M726.32,474.84H605.68c-5.56,0-11.12-.08-16.68,0h-.24c-5.23,0-10.24,4.6-10,10a10.17,10.17,0,0,0,10,10H709.4c5.56,0,11.12.08,16.68,0h.24c5.23,0,10.24-4.6,10-10a10.18,10.18,0,0,0-10-10Z" fill="#592d3d"></path><circle cx="382.91" cy="594.66" r="33.84" fill="#ffffff" opacity="0.2"></circle><path d="M375.87,631l43.31-41.74a147.47,147.47,0,0,0-7.57-12.9l-45.87,44.21C367.64,621.9,373.72,630.08,375.87,631Z" fill="#ffffff" opacity="0.4"></path><circle cx="382.91" cy="594.66" r="33.84" fill="none" stroke="#592d3d" stroke-miterlimit="10" stroke-width="12px"></circle><path d="M378,580.47c1.22,3.83-3.5,6.78-7,7.37-3.54,0-5.9-2.36-7.08-5.31-.59-2.95,0-5.9,2.36-7.67,2.95-1.18,7.08-2.36,9.7.67A6.85,6.85,0,0,1,378,580.47Z" fill="#ffffff"></path><path d="M384.32,578.21a2.29,2.29,0,0,1-4.49.19c0-1.77.59-2.36,2.27-2.42a2.22,2.22,0,0,1,2.22,2.22Z" fill="#ffffff"></path><circle cx="615.2" cy="594.66" r="33.84" fill="#ffffff" opacity="0.2"></circle><path d="M610.12,628.11l38.54-38.54c-.21-1.37-5.91-8.1-6.29-9.44l-41.72,41.74C602,622.24,608.75,627.91,610.12,628.11Z" fill="#ffffff" opacity="0.4"></path><circle cx="615.2" cy="594.66" r="33.84" fill="none" stroke="#592d3d" stroke-miterlimit="10" stroke-width="12px"></circle><path d="M607.36,579.91c1,3.25-3,5.75-6,6.25-3,0-5-2-6-4.5-.5-2.5,0-5,2-6.5,2.5-1,6-2,8.23.57A5.85,5.85,0,0,1,607.36,579.91Z" fill="#ffffff"></path><path d="M612.7,578a1.94,1.94,0,0,1-3.8.16c0-1.5.5-2,1.92-2A1.88,1.88,0,0,1,612.7,578Z" fill="#ffffff"></path><path d="M416.74,594.66q83.68-30,164.63,0" fill="none" stroke="#592d3d" stroke-miterlimit="10" stroke-width="12px"></path><path d="M615.2,634.5A39.9,39.9,0,0,1,575.6,599c-50-17.65-101.46-17.64-153.1,0a39.81,39.81,0,0,1-50.92,33.84,38,38,0,0,0,54.51-29.91c49.22-16.86,98.28-16.88,145.93,0a38,38,0,0,0,54.51,30A40,40,0,0,1,615.2,634.5Z" opacity="0.15"></path></g></svg>